PathFileType	4	(X/Y/Z)	C:\Users\Public\Documents\Vicon Data\AADs Machine\Fixing_spring_distance_56\90_lb_Spring\90_lb_Static.trc
DataRate	CameraRate	NumFrames	NumMarkers	Units	OrigDataRate	OrigDataStartFrame	OrigNumFrames
100.0	100.0	19	8	mm	100.0	53	314	
Frame#	Time	SpringTop			MMAL			LMAL			Shank			Heel			Foot			Toe			MP5			
		X1	Y1	Z1	X2	Y2	Z2	X3	Y3	Z3	X4	Y4	Z4	X5	Y5	Z5	X6	Y6	Z6	X7	Y7	Z7	X8	Y8	Z8	
53	0.52	-357.66858	144.16895	-610.94873	-289.47571	102.18869	-674.34882	-273.25232	111.63319	-553.07446	-221.50494	275.96835	-629.12231	-357.05481	85.167091	-608.20801	-178.8501	57.472374	-614.59271	-105.53275	38.989643	-630.565	-165.38525	40.643559	-562.4574
54	0.53	-357.73602	144.16557	-610.92029	-289.44467	102.21075	-674.3299	-273.25247	111.61745	-553.05072	-221.52956	275.97302	-629.07385	-357.05212	85.144974	-608.13312	-178.8157	57.468819	-614.57123	-105.54252	38.995689	-630.55542	-165.396	40.638344	-562.43616
55	0.54	-357.7406	144.17963	-610.91241	-289.42911	102.2139	-674.33441	-273.26257	111.58266	-553.04901	-221.52649	275.97244	-629.03723	-357.06583	85.152557	-608.16406	-178.8215	57.455696	-614.58228	-105.55473	38.984695	-630.5459	-165.38553	40.642223	-562.43628
56	0.55	-357.71603	144.17322	-610.87762	-289.47052	102.19952	-674.27667	-273.25812	111.60432	-553.00269	-221.53436	275.9938	-628.97504	-357.04721	85.139999	-608.13464	-178.82956	57.502625	-614.54053	-105.5685	38.998711	-630.53906	-165.39775	40.633717	-562.4281
57	0.56	-357.69092	144.17372	-610.85095	-289.43744	102.25656	-674.29614	-273.26184	111.59048	-553.00476	-221.53751	275.98795	-628.93103	-357.05609	85.147423	-608.1084	-178.81519	57.469624	-614.54205	-105.5617	39.008881	-630.5246	-165.37943	40.629444	-562.41998
58	0.57	-357.71249	144.2019	-610.82574	-289.4429	102.23959	-674.25226	-273.27222	111.59207	-552.98737	-221.56453	275.99622	-628.88049	-357.08746	85.168724	-608.17084	-178.83408	57.50304	-614.52631	-105.54815	39.008114	-630.51288	-165.41017	40.635323	-562.40735
59	0.58	-357.70416	144.15634	-610.79742	-289.42935	102.26564	-674.23645	-273.26929	111.59049	-552.9588	-221.55206	275.9975	-628.8316	-357.05011	85.122421	-608.11743	-178.82614	57.496914	-614.51196	-105.63779	38.829781	-630.39551	-165.36948	40.614967	-562.3913
60	0.59	-357.4566	144.18425	-610.93384	-289.42953	102.25726	-674.24811	-273.24231	111.56063	-552.96729	-221.55107	275.96347	-628.78888	-357.1185	85.108185	-608.44641	-178.81438	57.469021	-614.53503	-105.6204	38.820381	-630.39746	-165.36737	40.611778	-562.40411
61	0.6	-357.54193	144.25113	-610.82947	-289.42932	102.27283	-674.20435	-273.28256	111.53384	-552.9715	-221.57761	275.98651	-628.77637	-357.14438	85.140404	-608.42218	-178.83186	57.495354	-614.521	-105.63033	38.831936	-630.38269	-165.38271	40.610779	-562.37994
62	0.61	-357.50858	144.23444	-610.828	-289.41293	102.26943	-674.19635	-273.28546	111.54639	-552.94452	-221.57887	275.97238	-628.73816	-357.06158	85.168541	-608.01862	-178.84366	57.507233	-614.49805	-105.62616	38.835434	-630.3725	-165.38457	40.621376	-562.38379
63	0.62	-357.47507	144.19064	-610.87848	-289.43076	102.25099	-674.20361	-273.28244	111.54074	-552.91547	-221.56126	275.97147	-628.7298	-357.07602	85.128685	-608.20447	-178.83537	57.481983	-614.50781	-105.60814	38.785591	-630.37671	-165.36505	40.591732	-562.38757
64	0.63	-357.45087	144.19572	-610.88892	-289.43457	102.22939	-674.19275	-273.24951	111.53593	-552.94843	-221.51758	275.96579	-628.75098	-357.10477	85.134338	-608.42029	-178.82088	57.470722	-614.52618	-105.63619	38.788815	-630.38269	-165.39108	40.582314	-562.39392
65	0.64	-357.44495	144.24237	-610.85132	-289.41306	102.22891	-674.17877	-273.24979	111.55784	-552.9411	-221.5282	275.96725	-628.74078	-357.03702	85.194832	-608.06299	-178.8242	57.478485	-614.51929	-105.63672	38.782684	-630.37073	-165.36676	40.598537	-562.40765
66	0.65	-357.42224	144.17743	-610.89978	-289.41873	102.22598	-674.19092	-273.27292	111.55231	-552.92474	-221.47977	275.9559	-628.7583	-357.09698	85.093407	-608.43811	-178.83508	57.464684	-614.52319	-105.6244	38.764622	-630.39392	-165.37216	40.578434	-562.40125
67	0.66	-357.44275	144.18663	-610.93945	-289.46902	102.23435	-674.20599	-273.28415	111.55927	-552.93579	-221.42096	275.95667	-628.77289	-357.13986	85.10244	-608.46863	-178.83983	57.457935	-614.51349	-105.65639	38.755733	-630.38428	-165.38263	40.573982	-562.40564
68	0.67	-357.63736	144.23212	-610.79889	-289.42197	102.25776	-674.24084	-273.2518	111.55351	-552.94598	-221.44017	275.94684	-628.776	-357.09436	85.164764	-608.34375	-178.81563	57.456944	-614.52429	-105.64471	38.76688	-630.36151	-165.37071	40.578243	-562.40411
69	0.68	-357.59747	144.21355	-610.82147	-289.41455	102.22446	-674.22638	-273.2211	111.54759	-552.95453	-221.381	275.93158	-628.79645	-357.10385	85.111542	-608.45093	-178.80357	57.440445	-614.51996	-105.64178	38.742496	-630.35083	-165.37395	40.565926	-562.41278
70	0.69	-357.56625	144.17271	-610.87476	-289.44836	102.22746	-674.24292	-273.22482	111.564	-552.94104	-221.3517	275.92908	-628.81464	-357.03555	85.137718	-608.08289	-178.80472	57.444492	-614.51788	-105.64953	38.710293	-630.36145	-165.38669	40.553974	-562.41772
71	0.7	-357.59937	144.19528	-610.83344	-289.43842	102.19193	-674.22028	-273.21826	111.55881	-552.96057	-221.33958	275.92282	-628.82153	-357.11075	85.094147	-608.46466	-178.80925	57.451504	-614.52509	-105.65464	38.700478	-630.37201	-165.38089	40.549667	-562.40393
